# xmcd
#
# Track frame offsets: 
#        150
#        19273
#        36466
#        53126
#        75623
#        96643
#        110121
#        134786
#        146129
#
# Disc length: 2107 seconds
#
# Revision: 0
# Processed by: cddbd v1.5.2PL0 Copyright (c) Steve Scherf et al.
# Submitted via: ExactAudioCopy v1.0b4
#
DISCID=8d083909
DTITLE=Nelsen Adelard - Voodou By You
DYEAR=2015
DGENRE=Blues
TTITLE0=I Need Tonight With You
TTITLE1=Get In The Groove
TTITLE2=Mon Cheri
TTITLE3=May Just have To Set You Free
TTITLE4=Voodou By You
TTITLE5=Boom
TTITLE6=Train Whistle Blues
TTITLE7=I'm Gone
TTITLE8=Down The Road I Go
EXTD=
EXTT0=
EXTT1=
EXTT2=
EXTT3=
EXTT4=
EXTT5=
EXTT6=
EXTT7=
EXTT8=
PLAYORDER=
